<svg data-v-423bf9ae="" xmlns="http://www.w3.org/2000/svg" viewBox="0 0 367 90" class="iconLeft"><!----><!----><!----><g data-v-423bf9ae="" id="30acd7d1-27c7-4d4e-9e0f-7e4d8bf84415" fill="white" transform="matrix(4.743082789406028,0,0,4.743082789406028,107.86275450947036,1.0079043529915097)"><path d="M3.79 12.61L3.79 3.67L0.48 3.67L0.48 2.95L8.05 2.95L8.05 3.67L4.73 3.67L4.73 12.61L3.79 12.61ZM9.71 12.61L9.71 5.78L10.58 5.78L10.58 7.01L10.58 7.01Q10.86 6.38 11.42 6.01L11.42 6.01L11.42 6.01Q11.98 5.63 12.64 5.63L12.64 5.63L12.64 5.63Q13.23 5.63 13.71 5.95L13.71 5.95L13.36 6.71L13.36 6.71Q13.06 6.45 12.50 6.45L12.50 6.45L12.50 6.45Q11.57 6.45 11.07 7.14L11.07 7.14L11.07 7.14Q10.57 7.83 10.57 9.06L10.57 9.06L10.57 12.61L9.71 12.61ZM15.05 4.20L15.05 2.95L16.07 2.95L16.07 4.20L15.05 4.20ZM15.13 12.61L15.13 5.78L15.99 5.78L15.99 12.61L15.13 12.61ZM18.40 15.60L18.40 5.78L19.25 5.78L19.25 6.77L19.25 6.77Q19.59 6.24 20.14 5.94L20.14 5.94L20.14 5.94Q20.68 5.63 21.38 5.63L21.38 5.63L21.38 5.63Q22.25 5.63 22.87 6.10L22.87 6.10L22.87 6.10Q23.50 6.57 23.81 7.38L23.81 7.38L23.81 7.38Q24.12 8.18 24.12 9.19L24.12 9.19L24.12 9.19Q24.12 10.19 23.81 10.99L23.81 10.99L23.81 10.99Q23.50 11.80 22.88 12.27L22.88 12.27L22.88 12.27Q22.26 12.74 21.38 12.74L21.38 12.74L21.38 12.74Q20.69 12.74 20.15 12.45L20.15 12.45L20.15 12.45Q19.61 12.15 19.25 11.61L19.25 11.61L19.25 15.60L18.40 15.60ZM21.21 12.04L21.21 12.04Q21.90 12.04 22.36 11.65L22.36 11.65L22.36 11.65Q22.82 11.25 23.04 10.60L23.04 10.60L23.04 10.60Q23.27 9.95 23.27 9.19L23.27 9.19L23.27 9.19Q23.27 8.43 23.04 7.78L23.04 7.78L23.04 7.78Q22.82 7.13 22.36 6.73L22.36 6.73L22.36 6.73Q21.90 6.33 21.21 6.33L21.21 6.33L21.21 6.33Q20.52 6.33 20.06 6.73L20.06 6.73L20.06 6.73Q19.61 7.13 19.39 7.78L19.39 7.78L19.39 7.78Q19.17 8.43 19.17 9.19L19.17 9.19L19.17 9.19Q19.17 9.95 19.39 10.60L19.39 10.60L19.39 10.60Q19.61 11.25 20.06 11.65L20.06 11.65L20.06 11.65Q20.52 12.04 21.21 12.04L21.21 12.04ZM29.05 12.74L29.05 12.74Q27.62 12.74 26.88 11.61L26.88 11.61L26.88 12.61L26.04 12.61L26.04 2.95L26.88 2.95L26.88 6.77L26.88 6.77Q27.64 5.63 29.05 5.63L29.05 5.63L29.05 5.63Q29.89 5.63 30.51 6.10L30.51 6.10L30.51 6.10Q31.12 6.58 31.44 7.39L31.44 7.39L31.44 7.39Q31.75 8.20 31.75 9.19L31.75 9.19L31.75 9.19Q31.75 10.19 31.44 10.99L31.44 10.99L31.44 10.99Q31.12 11.80 30.51 12.27L30.51 12.27L30.51 12.27Q29.89 12.74 29.05 12.74L29.05 12.74ZM28.83 12.04L28.83 12.04Q29.51 12.04 29.98 11.65L29.98 11.65L29.98 11.65Q30.44 11.25 30.67 10.60L30.67 10.60L30.67 10.60Q30.90 9.95 30.90 9.19L30.90 9.19L30.90 9.19Q30.90 8.44 30.67 7.78L30.67 7.78L30.67 7.78Q30.44 7.13 29.98 6.73L29.98 6.73L29.98 6.73Q29.51 6.33 28.83 6.33L28.83 6.33L28.83 6.33Q28.14 6.33 27.69 6.73L27.69 6.73L27.69 6.73Q27.24 7.13 27.03 7.78L27.03 7.78L27.03 7.78Q26.81 8.43 26.81 9.19L26.81 9.19L26.81 9.19Q26.81 9.95 27.03 10.60L27.03 10.60L27.03 10.60Q27.24 11.25 27.69 11.65L27.69 11.65L27.69 11.65Q28.14 12.04 28.83 12.04L28.83 12.04ZM36.26 12.74L36.26 12.74Q35.34 12.74 34.62 12.26L34.62 12.26L34.62 12.26Q33.91 11.78 33.51 10.96L33.51 10.96L33.51 10.96Q33.11 10.14 33.11 9.17L33.11 9.17L33.11 9.17Q33.11 8.20 33.51 7.39L33.51 7.39L33.51 7.39Q33.91 6.58 34.62 6.11L34.62 6.11L34.62 6.11Q35.34 5.63 36.26 5.63L36.26 5.63L36.26 5.63Q37.17 5.63 37.90 6.11L37.90 6.11L37.90 6.11Q38.63 6.58 39.04 7.40L39.04 7.40L39.04 7.40Q39.45 8.21 39.45 9.17L39.45 9.17L39.45 9.17Q39.45 10.14 39.04 10.96L39.04 10.96L39.04 10.96Q38.63 11.78 37.90 12.26L37.90 12.26L37.90 12.26Q37.17 12.74 36.26 12.74L36.26 12.74ZM36.27 12.04L36.27 12.04Q37.03 12.04 37.56 11.64L37.56 11.64L37.56 11.64Q38.08 11.23 38.34 10.58L38.34 10.58L38.34 10.58Q38.60 9.92 38.60 9.17L38.60 9.17L38.60 9.17Q38.60 8.43 38.34 7.78L38.34 7.78L38.34 7.78Q38.08 7.13 37.56 6.73L37.56 6.73L37.56 6.73Q37.04 6.33 36.29 6.33L36.29 6.33L36.29 6.33Q35.53 6.33 35.01 6.73L35.01 6.73L35.01 6.73Q34.48 7.13 34.22 7.78L34.22 7.78L34.22 7.78Q33.96 8.43 33.96 9.17L33.96 9.17L33.96 9.17Q33.96 9.93 34.22 10.58L34.22 10.58L34.22 10.58Q34.48 11.24 35.00 11.64L35.00 11.64L35.00 11.64Q35.53 12.04 36.27 12.04L36.27 12.04ZM43.89 12.74L43.89 12.74Q42.97 12.74 42.25 12.26L42.25 12.26L42.25 12.26Q41.54 11.78 41.14 10.96L41.14 10.96L41.14 10.96Q40.74 10.14 40.74 9.17L40.74 9.17L40.74 9.17Q40.74 8.20 41.14 7.39L41.14 7.39L41.14 7.39Q41.54 6.58 42.25 6.11L42.25 6.11L42.25 6.11Q42.97 5.63 43.89 5.63L43.89 5.63L43.89 5.63Q44.80 5.63 45.53 6.11L45.53 6.11L45.53 6.11Q46.26 6.58 46.67 7.40L46.67 7.40L46.67 7.40Q47.08 8.21 47.08 9.17L47.08 9.17L47.08 9.17Q47.08 10.14 46.67 10.96L46.67 10.96L46.67 10.96Q46.26 11.78 45.53 12.26L45.53 12.26L45.53 12.26Q44.80 12.74 43.89 12.74L43.89 12.74ZM43.90 12.04L43.90 12.04Q44.66 12.04 45.19 11.64L45.19 11.64L45.19 11.64Q45.71 11.23 45.97 10.58L45.97 10.58L45.97 10.58Q46.22 9.92 46.22 9.17L46.22 9.17L46.22 9.17Q46.22 8.43 45.97 7.78L45.97 7.78L45.97 7.78Q45.71 7.13 45.19 6.73L45.19 6.73L45.19 6.73Q44.67 6.33 43.91 6.33L43.91 6.33L43.91 6.33Q43.16 6.33 42.64 6.73L42.64 6.73L42.64 6.73Q42.11 7.13 41.85 7.78L41.85 7.78L41.85 7.78Q41.59 8.43 41.59 9.17L41.59 9.17L41.59 9.17Q41.59 9.93 41.85 10.58L41.85 10.58L41.85 10.58Q42.11 11.24 42.63 11.64L42.63 11.64L42.63 11.64Q43.16 12.04 43.90 12.04L43.90 12.04ZM48.92 12.61L48.92 2.95L49.79 2.95L49.79 9.67L52.96 5.78L54.01 5.78L51.86 8.25L54.50 12.61L53.48 12.61L51.36 8.87L49.79 10.60L49.79 12.61L48.92 12.61Z"></path></g><!----><g data-v-423bf9ae="" id="bc2c981d-e841-4c72-a0c3-3dced76616da" transform="matrix(1.148092225933332,0,0,1.148092225933332,-0.19141990946332044,-0.10828364677176694)" stroke="none" fill="white"><path d="M37.675.776c4.98-.22 10.007.364 14.756 1.887 2.164.699 4.27 1.599 6.234 2.748 1.312.795 2.624 1.58 3.897 2.432 3.007 2.068 5.66 4.635 7.938 7.479 2.298 2.9 4.261 6.08 5.745 9.47 1.197 2.662 2.165 5.439 2.605 8.33.182 1.054.21 2.126.297 3.189.115.929.115 1.858.172 2.787.077 1.311-.163 2.614-.182 3.925.029.355.077.71.029 1.063-.632 5.928-2.729 11.663-5.841 16.738a41.183 41.183 0 0 1-5.458 6.885c-1.743 1.781-3.658 3.419-5.745 4.778-1.35.862-2.72 1.667-4.175 2.337-1.063.46-2.069 1.034-3.15 1.455-1.274.537-2.605.939-3.927 1.34-1.59.47-3.227.757-4.845 1.083-.546.124-1.11.172-1.666.249-.986.153-1.992.115-2.997.153-.929.01-1.848.029-2.777.01-1.56-.086-3.122-.249-4.654-.574-4.089-.594-8.091-1.839-11.72-3.83-1.762-.93-3.447-2.002-5.075-3.151-2.911-1.982-5.44-4.453-7.69-7.143-1.072-1.35-2.116-2.72-2.997-4.194-.68-1.063-1.139-2.241-1.714-3.361-.842-1.686-1.522-3.457-2.116-5.248C.886 46.308.426 40.601 1.154 35.067c.201-1.657.412-3.323.89-4.932.642-2.451 1.475-4.864 2.653-7.124.536-1.149 1.101-2.288 1.81-3.351.536-.92 1.101-1.81 1.752-2.662a36.664 36.664 0 0 1 2.557-3.275c.632-.68 1.302-1.312 1.953-1.973a31.865 31.865 0 0 1 7.824-5.86c.526-.268 1.034-.565 1.56-.843 4.673-2.796 10.131-3.993 15.522-4.27M38.73 4.97c-1.14.105-2.299.163-3.438.277-2.25.355-4.491.824-6.626 1.61-1.427.468-2.796 1.072-4.156 1.694-.383.192-.776.373-1.101.651.411.47.66 1.053.976 1.58.968 1.79 1.849 3.61 2.864 5.372 2.566 4.548 5.055 9.145 7.68 13.664.995 1.705 1.914 3.447 2.89 5.161.068.096.106.211.212.269.296-.058.565-.182.842-.278.048-1.35.029-2.71.067-4.06.115-5.602.22-11.203.287-16.805.096-3.036.02-6.08.202-9.106-.23-.02-.46-.048-.7-.03m2.414 0c.114 1.035.028 2.07.028 3.103-.096 3.735-.134 7.47-.21 11.204-.067 5.2-.23 10.399-.259 15.598.335.058.67.134 1.015.192 2.672-4.625 5.286-9.289 8.158-13.799.93-1.503 1.83-3.026 2.749-4.529 1.053-1.695 2.087-3.4 3.14-5.094.48-.728.853-1.523 1.38-2.222-2.74-1.704-5.842-2.71-8.963-3.495-1.427-.306-2.864-.526-4.31-.747-.9-.124-1.81-.239-2.728-.21m-23.834 8.637c-2.518 2.193-4.663 4.797-6.492 7.584-.125.172-.22.373-.316.565 6.77 4.146 13.53 8.302 20.386 12.304 1.638.939 3.285 1.848 4.922 2.777.249-.182.45-.402.651-.622-2.183-4.041-4.472-8.025-6.712-12.027-1.848-3.4-3.83-6.732-5.65-10.15-.708-1.293-1.475-2.566-2.183-3.869a35.116 35.116 0 0 0-4.606 3.438m41.318-3.256c-.21.565-.584 1.034-.9 1.552-2.154 3.341-4.251 6.731-6.339 10.13a288.045 288.045 0 0 0-5.755 9.653c-.775 1.417-1.618 2.786-2.346 4.232.269.22.537.45.786.699.296-.125.574-.297.852-.47 3.227-1.847 6.444-3.705 9.7-5.524 3.725-2.069 7.507-4.041 11.251-6.08 1.436-.757 2.844-1.58 4.31-2.309-1.667-2.738-3.601-5.343-5.986-7.507-1.264-1.14-2.537-2.27-3.926-3.255-.545-.383-1.062-.814-1.647-1.12M9.581 23.297c-.211.374-.403.766-.584 1.15-.642 1.397-1.293 2.795-1.791 4.26-.69 1.944-1.254 3.946-1.57 5.985-.192 1.235-.403 2.48-.316 3.735 1.168 0 2.326.095 3.495.143 2.26.125 4.529.163 6.798.211 3.438.124 6.885.201 10.332.287 2.748.077 5.487.201 8.235.278.144-.02.326.048.44-.067.125-.278.173-.575.269-.862-1.733-1.034-3.505-2.001-5.248-3.016-6.722-3.974-13.425-7.996-20.06-12.104m55.787 3.61c-3.41 1.83-6.828 3.62-10.198 5.497-3.39 1.877-6.741 3.83-10.112 5.745.067.316.182.613.258.929.881.038 1.772.02 2.653.029 2.423.057 4.855-.048 7.277-.039 2.365-.028 4.721.02 7.086.029 2.557.02 5.114.105 7.66.278 1.695.076 3.38.277 5.066.411.01-2.173-.057-4.356-.527-6.492a39.714 39.714 0 0 0-1.58-5.41c-.555-1.388-1.168-2.767-1.896-4.089-1.886 1.063-3.801 2.059-5.687 3.112M39.485 39.222c-.555.163-.594.91-.364 1.341.287.594 1.15.747 1.657.345.268-.21.316-.594.249-.91-.134-.651-.948-1.015-1.542-.776m-34.06.939c-.048 4.06.737 8.11 2.193 11.893.574 1.436 1.168 2.872 1.943 4.213 3.62-2.059 7.268-4.05 10.888-6.1a445.23 445.23 0 0 0 8.57-4.835c1.934-1.082 3.897-2.126 5.85-3.189a12.348 12.348 0 0 0-.268-.977c-4.28-.191-8.58-.316-12.869-.402-2.557-.038-5.104-.163-7.66-.21a261.13 261.13 0 0 1-8.647-.393m39.959.766c-.067.345-.22.68-.211 1.034.517.43 1.14.718 1.685 1.11 1.82 1.13 3.62 2.28 5.458 3.362 1.38.785 2.71 1.628 4.08 2.432 3.044 1.771 6.051 3.6 9.096 5.362 1.657.977 3.304 1.963 4.98 2.892.708-1.37 1.33-2.777 1.972-4.175.814-1.867 1.417-3.82 1.858-5.812.383-1.848.718-3.715.65-5.611-2.01 0-4.002-.269-6.013-.355-2.26-.182-4.529-.2-6.798-.23-3.093 0-6.196-.076-9.289-.028-2.49.057-4.979 0-7.468.019m-1.628 3.083c-.106.115 0 .278.048.393a431.522 431.522 0 0 1 4.213 7.383c.88 1.58 1.714 3.188 2.585 4.778A251.823 251.823 0 0 0 56.3 66.58c.622 1.024 1.177 2.087 1.81 3.112 1.675-1.063 3.35-2.136 4.854-3.428a29.15 29.15 0 0 0 3.016-2.94c.834-.948 1.762-1.81 2.51-2.844.468-.66.995-1.302 1.34-2.04-.163.048-.345.24-.517.106a40.062 40.062 0 0 1-1.619-.967c-2.987-1.8-5.994-3.572-8.962-5.4-1.561-1.016-3.218-1.878-4.788-2.883-1.752-1.044-3.524-2.068-5.266-3.15-1.446-.91-2.902-1.81-4.357-2.72a3.63 3.63 0 0 0-.565.584m-14.804 3.457c-3.122 1.81-6.282 3.552-9.432 5.314a.822.822 0 0 0-.393.412 1.186 1.186 0 0 0-.718.201c-2.307 1.302-4.625 2.576-6.932 3.878-.316.201-.757.297-.987.594.412.709.881 1.379 1.312 2.068 1.733 2.47 3.85 4.654 6.119 6.627a32.317 32.317 0 0 0 3.725 2.633c1.101-1.685 2.126-3.438 3.208-5.142 1.14-1.772 2.25-3.572 3.351-5.372a882.99 882.99 0 0 0 5.793-9.624c.91-1.512 1.733-3.073 2.624-4.605-.259-.259-.546-.489-.814-.747a144.255 144.255 0 0 0-6.856 3.763m12.151-2.03c-.086 2.26-.057 4.52-.115 6.78-.048 2.489-.028 4.979-.134 7.468-.048 2.27-.086 4.53-.105 6.799-.038 2.69.02 5.381-.01 8.072 1.704-.02 3.39-.258 5.075-.45 2.5-.364 4.96-.996 7.335-1.867 1.178-.45 2.327-.948 3.428-1.57a1181.913 1181.913 0 0 1-3.457-5.88c-1.963-3.428-3.85-6.894-5.716-10.38-1.676-3.15-3.515-6.214-5.286-9.307-.345.086-.68.21-1.015.335M31.805 56.17c-1.886 3.16-3.84 6.282-5.812 9.394-.958 1.493-1.772 3.083-2.911 4.452 2.24 1.38 4.692 2.346 7.181 3.15.967.317 1.954.489 2.93.738 1.868.373 3.764.67 5.679.651.057-3.428 0-6.856.076-10.284.096-1.59.067-3.18.144-4.769.038-2.403.105-4.797.124-7.19.02-2.27.087-4.53.067-6.8-.354-.095-.727-.143-1.082-.23-2.049 3.678-4.222 7.278-6.396 10.888z"></path></g><!----></svg>