<svg data-v-fde0c5aa="" xmlns="http://www.w3.org/2000/svg" viewBox="0 0 300 300" class="font"><!----><defs data-v-fde0c5aa=""><!----></defs><rect data-v-fde0c5aa="" fill="#8F532C" x="0" y="0" width="300px" height="300px" class="logo-background-square"></rect><defs data-v-fde0c5aa=""><!----></defs><g data-v-fde0c5aa="" id="5d91eb14-4bcb-4a85-ae75-8976524a258f" fill="#001C0F" transform="matrix(4.072565681890548,0,0,4.072565681890548,38.045168395014514,112.22695194109973)"><path d="M3.79 12.61L3.79 3.67L0.48 3.67L0.48 2.95L8.05 2.95L8.05 3.67L4.73 3.67L4.73 12.61L3.79 12.61ZM9.71 12.61L9.71 5.78L10.58 5.78L10.58 7.01L10.58 7.01Q10.86 6.38 11.42 6.01L11.42 6.01L11.42 6.01Q11.98 5.63 12.64 5.63L12.64 5.63L12.64 5.63Q13.23 5.63 13.71 5.95L13.71 5.95L13.36 6.71L13.36 6.71Q13.06 6.45 12.50 6.45L12.50 6.45L12.50 6.45Q11.57 6.45 11.07 7.14L11.07 7.14L11.07 7.14Q10.57 7.83 10.57 9.06L10.57 9.06L10.57 12.61L9.71 12.61ZM15.05 4.20L15.05 2.95L16.07 2.95L16.07 4.20L15.05 4.20ZM15.13 12.61L15.13 5.78L15.99 5.78L15.99 12.61L15.13 12.61ZM18.40 15.60L18.40 5.78L19.25 5.78L19.25 6.77L19.25 6.77Q19.59 6.24 20.14 5.94L20.14 5.94L20.14 5.94Q20.68 5.63 21.38 5.63L21.38 5.63L21.38 5.63Q22.25 5.63 22.87 6.10L22.87 6.10L22.87 6.10Q23.50 6.57 23.81 7.38L23.81 7.38L23.81 7.38Q24.12 8.18 24.12 9.19L24.12 9.19L24.12 9.19Q24.12 10.19 23.81 10.99L23.81 10.99L23.81 10.99Q23.50 11.80 22.88 12.27L22.88 12.27L22.88 12.27Q22.26 12.74 21.38 12.74L21.38 12.74L21.38 12.74Q20.69 12.74 20.15 12.45L20.15 12.45L20.15 12.45Q19.61 12.15 19.25 11.61L19.25 11.61L19.25 15.60L18.40 15.60ZM21.21 12.04L21.21 12.04Q21.90 12.04 22.36 11.65L22.36 11.65L22.36 11.65Q22.82 11.25 23.04 10.60L23.04 10.60L23.04 10.60Q23.27 9.95 23.27 9.19L23.27 9.19L23.27 9.19Q23.27 8.43 23.04 7.78L23.04 7.78L23.04 7.78Q22.82 7.13 22.36 6.73L22.36 6.73L22.36 6.73Q21.90 6.33 21.21 6.33L21.21 6.33L21.21 6.33Q20.52 6.33 20.06 6.73L20.06 6.73L20.06 6.73Q19.61 7.13 19.39 7.78L19.39 7.78L19.39 7.78Q19.17 8.43 19.17 9.19L19.17 9.19L19.17 9.19Q19.17 9.95 19.39 10.60L19.39 10.60L19.39 10.60Q19.61 11.25 20.06 11.65L20.06 11.65L20.06 11.65Q20.52 12.04 21.21 12.04L21.21 12.04ZM29.05 12.74L29.05 12.74Q27.62 12.74 26.88 11.61L26.88 11.61L26.88 12.61L26.04 12.61L26.04 2.95L26.88 2.95L26.88 6.77L26.88 6.77Q27.64 5.63 29.05 5.63L29.05 5.63L29.05 5.63Q29.89 5.63 30.51 6.10L30.51 6.10L30.51 6.10Q31.12 6.58 31.44 7.39L31.44 7.39L31.44 7.39Q31.75 8.20 31.75 9.19L31.75 9.19L31.75 9.19Q31.75 10.19 31.44 10.99L31.44 10.99L31.44 10.99Q31.12 11.80 30.51 12.27L30.51 12.27L30.51 12.27Q29.89 12.74 29.05 12.74L29.05 12.74ZM28.83 12.04L28.83 12.04Q29.51 12.04 29.98 11.65L29.98 11.65L29.98 11.65Q30.44 11.25 30.67 10.60L30.67 10.60L30.67 10.60Q30.90 9.95 30.90 9.19L30.90 9.19L30.90 9.19Q30.90 8.44 30.67 7.78L30.67 7.78L30.67 7.78Q30.44 7.13 29.98 6.73L29.98 6.73L29.98 6.73Q29.51 6.33 28.83 6.33L28.83 6.33L28.83 6.33Q28.14 6.33 27.69 6.73L27.69 6.73L27.69 6.73Q27.24 7.13 27.03 7.78L27.03 7.78L27.03 7.78Q26.81 8.43 26.81 9.19L26.81 9.19L26.81 9.19Q26.81 9.95 27.03 10.60L27.03 10.60L27.03 10.60Q27.24 11.25 27.69 11.65L27.69 11.65L27.69 11.65Q28.14 12.04 28.83 12.04L28.83 12.04ZM36.26 12.74L36.26 12.74Q35.34 12.74 34.62 12.26L34.62 12.26L34.62 12.26Q33.91 11.78 33.51 10.96L33.51 10.96L33.51 10.96Q33.11 10.14 33.11 9.17L33.11 9.17L33.11 9.17Q33.11 8.20 33.51 7.39L33.51 7.39L33.51 7.39Q33.91 6.58 34.62 6.11L34.62 6.11L34.62 6.11Q35.34 5.63 36.26 5.63L36.26 5.63L36.26 5.63Q37.17 5.63 37.90 6.11L37.90 6.11L37.90 6.11Q38.63 6.58 39.04 7.40L39.04 7.40L39.04 7.40Q39.45 8.21 39.45 9.17L39.45 9.17L39.45 9.17Q39.45 10.14 39.04 10.96L39.04 10.96L39.04 10.96Q38.63 11.78 37.90 12.26L37.90 12.26L37.90 12.26Q37.17 12.74 36.26 12.74L36.26 12.74ZM36.27 12.04L36.27 12.04Q37.03 12.04 37.56 11.64L37.56 11.64L37.56 11.64Q38.08 11.23 38.34 10.58L38.34 10.58L38.34 10.58Q38.60 9.92 38.60 9.17L38.60 9.17L38.60 9.17Q38.60 8.43 38.34 7.78L38.34 7.78L38.34 7.78Q38.08 7.13 37.56 6.73L37.56 6.73L37.56 6.73Q37.04 6.33 36.29 6.33L36.29 6.33L36.29 6.33Q35.53 6.33 35.01 6.73L35.01 6.73L35.01 6.73Q34.48 7.13 34.22 7.78L34.22 7.78L34.22 7.78Q33.96 8.43 33.96 9.17L33.96 9.17L33.96 9.17Q33.96 9.93 34.22 10.58L34.22 10.58L34.22 10.58Q34.48 11.24 35.00 11.64L35.00 11.64L35.00 11.64Q35.53 12.04 36.27 12.04L36.27 12.04ZM43.89 12.74L43.89 12.74Q42.97 12.74 42.25 12.26L42.25 12.26L42.25 12.26Q41.54 11.78 41.14 10.96L41.14 10.96L41.14 10.96Q40.74 10.14 40.74 9.17L40.74 9.17L40.74 9.17Q40.74 8.20 41.14 7.39L41.14 7.39L41.14 7.39Q41.54 6.58 42.25 6.11L42.25 6.11L42.25 6.11Q42.97 5.63 43.89 5.63L43.89 5.63L43.89 5.63Q44.80 5.63 45.53 6.11L45.53 6.11L45.53 6.11Q46.26 6.58 46.67 7.40L46.67 7.40L46.67 7.40Q47.08 8.21 47.08 9.17L47.08 9.17L47.08 9.17Q47.08 10.14 46.67 10.96L46.67 10.96L46.67 10.96Q46.26 11.78 45.53 12.26L45.53 12.26L45.53 12.26Q44.80 12.74 43.89 12.74L43.89 12.74ZM43.90 12.04L43.90 12.04Q44.66 12.04 45.19 11.64L45.19 11.64L45.19 11.64Q45.71 11.23 45.97 10.58L45.97 10.58L45.97 10.58Q46.22 9.92 46.22 9.17L46.22 9.17L46.22 9.17Q46.22 8.43 45.97 7.78L45.97 7.78L45.97 7.78Q45.71 7.13 45.19 6.73L45.19 6.73L45.19 6.73Q44.67 6.33 43.91 6.33L43.91 6.33L43.91 6.33Q43.16 6.33 42.64 6.73L42.64 6.73L42.64 6.73Q42.11 7.13 41.85 7.78L41.85 7.78L41.85 7.78Q41.59 8.43 41.59 9.17L41.59 9.17L41.59 9.17Q41.59 9.93 41.85 10.58L41.85 10.58L41.85 10.58Q42.11 11.24 42.63 11.64L42.63 11.64L42.63 11.64Q43.16 12.04 43.90 12.04L43.90 12.04ZM48.92 12.61L48.92 2.95L49.79 2.95L49.79 9.67L52.96 5.78L54.01 5.78L51.86 8.25L54.50 12.61L53.48 12.61L51.36 8.87L49.79 10.60L49.79 12.61L48.92 12.61Z"></path></g><!----><!----></svg>